<svg width="15" height="10" viewBox="0 0 15 10" fill="none" xmlns="http://www.w3.org/2000/svg">
<path d="M0.0568182 1.27273H1.31818L4.28409 8.51705H4.38636L7.35227 1.27273H8.61364V10H7.625V3.36932H7.53977L4.8125 10H3.85795L1.13068 3.36932H1.04545V10H0.0568182V1.27273ZM10.2511 6V0.763636H12.1175C12.5232 0.763636 12.8599 0.833522 13.1275 0.973295C13.3968 1.11307 13.5979 1.30653 13.7309 1.55369C13.8638 1.79915 13.9303 2.08295 13.9303 2.40511C13.9303 2.72557 13.863 3.00767 13.7283 3.25142C13.5954 3.49347 13.3942 3.68182 13.1249 3.81648C12.8573 3.95114 12.5207 4.01847 12.115 4.01847H10.7011V3.33835H12.0434C12.2991 3.33835 12.507 3.3017 12.6673 3.22841C12.8292 3.15511 12.9477 3.04858 13.0227 2.90881C13.0977 2.76903 13.1352 2.60114 13.1352 2.40511C13.1352 2.20739 13.0968 2.03608 13.0201 1.89119C12.9451 1.74631 12.8266 1.63551 12.6647 1.55881C12.5045 1.4804 12.294 1.44119 12.0332 1.44119H11.0411V6H10.2511ZM12.836 3.6375L14.1298 6H13.2298L11.9616 3.6375H12.836Z" fill="black"/>
</svg>
